<?xml version="1.0" encoding="UTF-8"?>
<svg width="100mm" height="100mm" version="1.1" viewBox="0 0 100 100" xmlns="http://www.w3.org/2000/svg">
   <g transform="matrix(1.0138 0 0 .99283 18 31.001)" fill="#000">
      <path d="m13.386 38.274c-2.8277 0-5.3165-0.27285-7.4662-0.81855-2.1332-0.5457-5.9366-1.1741-5.9201-2.3316l0.033073-7.9871c-0.014882-0.40073 0.35918-0.52828 0.77721-0.49609 1.8521 1.571 3.8943 2.7781 6.1268 3.6215 2.2324 0.84336 4.3987 1.265 6.4988 1.265 0.52917 0 1.2237-0.05788 2.0836-0.17363 0.87643-0.11576 1.5792-0.29766 2.1084-0.5457 0.64492-0.28112 1.1906-0.66973 1.6371-1.1658 0.44648-0.51263 0.66973-1.1824 0.66973-2.0092 0-0.92604-0.3638-1.6784-1.0914-2.2572s-1.5958-1.0005-2.6045-1.265c-1.2568-0.33073-2.6045-0.64492-4.0432-0.94258-1.4221-0.29766-2.7533-0.66146-3.9936-1.0914-2.8608-1.0087-4.9113-2.3647-6.1516-4.068-1.2402-1.7033-1.8604-3.8365-1.8604-6.3996 0-3.4561 1.4635-6.2508 4.3904-8.384 2.927-2.1497 6.5815-3.2246 10.964-3.2246 2.1993 0 4.3822 0.22324 6.5484 0.66973 2.1828 0.44648 5.6308 1.2839 5.7136 2.8865l0.04677 6.7498c0.0024 0.52807-0.27969 0.59972-0.72501 0.60804-1.2665-0.85593-3.0461-2.1517-5.0353-2.9766-1.9678-0.81029-3.9936-1.2154-6.0771-1.2154-0.81029 0-1.5379 0.057878-2.1828 0.17363-0.64492 0.11576-1.3229 0.339-2.034 0.66973-0.57878 0.26458-1.0831 0.66146-1.5131 1.1906-0.41341 0.51263-0.62012 1.0914-0.62012 1.7363 0 0.94258 0.33073 1.695 0.99219 2.2572 0.678 0.5457 1.9761 1.0418 3.8943 1.4883 1.2402 0.28112 2.4309 0.55397 3.5719 0.81856 1.1576 0.26458 2.3895 0.62838 3.6959 1.0914 2.5632 0.92604 4.4648 2.1745 5.7051 3.7455 1.2568 1.5544 1.8852 3.6132 1.8852 6.1764 0 3.6711-1.4469 6.6229-4.3408 8.8553-2.8773 2.2324-6.7717 3.3486-11.683 3.3486z"/>
   </g>
   <g transform="matrix(-1.0138 0 0 .97469 16.927 32.001)" fill="#000">
      <path d="m-30.778 36.934h-9.8217c-0.51834 0.0026-0.74952-0.20069-1.015-0.51281l-13.047-17.955v6.3876l-1.56e-4 11.08c-0.02301 0.52955-0.38626 0.98834-1 1.0002l-7.525-1.77e-4c-0.65859 0.0065-1.0253-0.48624-1-1v-34.934c-0.02856-0.69523 0.3231-1.0102 1-1l7.525 8.6706e-7c0.50081 0.015136 1.0012 0.3055 1 1l1.56e-4 17.467 13.047-17.954c0.32352-0.43201 0.46859-0.49346 1.015-0.51263h9.8217c0.22124 0.0039136 0.23403 0.13414 0.05425 0.3367l-14.14 18.13 14.14 17.905c0.13558 0.18768 0.13615 0.55421-0.05425 0.56206z"/>
   </g>
   <circle cx="50" cy="50" r="45.07" fill="none" stroke="#000" stroke-width="9.8601"/>
</svg>
